<?xml version="1.0" encoding="UTF-8"?>
<svg xmlns="http://www.w3.org/2000/svg" style="display: none;">

  <!-- Social Media Icons -->
  <symbol id="icon-facebook" viewBox="0 0 24 24">
    <path d="M24 12.073c0-6.627-5.373-12-12-12s-12 5.373-12 12c0 5.99 4.388 10.954 10.125 11.854v-8.385H7.078v-3.47h3.047V9.43c0-3.007 1.792-4.669 4.533-4.669 1.312 0 2.686.235 2.686.235v2.953H15.83c-1.491 0-1.956.925-1.956 1.874v2.25h3.328l-.532 3.47h-2.796v8.385C19.612 23.027 24 18.062 24 12.073z"/>
  </symbol>

  <symbol id="icon-instagram" viewBox="0 0 24 24">
    <path d="M12 2.163c3.204 0 3.584.012 4.85.07 3.252.148 4.771 1.691 4.919 4.919.058 1.265.069 1.645.069 4.849 0 3.205-.012 3.584-.069 4.849-.149 3.225-1.664 4.771-4.919 4.919-1.266.058-1.644.07-4.85.07-3.204 0-3.584-.012-4.849-.07-3.26-.149-4.771-1.699-4.919-4.92-.058-1.265-.07-1.644-.07-4.849 0-3.204.013-3.583.07-4.849.149-3.227 1.664-4.771 4.919-4.919 1.266-.057 1.645-.069 4.849-.069zm0-2.163c-3.259 0-3.667.014-4.947.072-4.358.2-6.78 2.618-6.98 6.98-.059 1.281-.073 1.689-.073 4.948 0 3.259.014 3.668.072 4.948.2 4.358 2.618 6.78 6.98 6.98 1.281.058 1.689.072 4.948.072 3.259 0 3.668-.014 4.948-.072 4.354-.2 6.782-2.618 6.979-6.98.059-1.28.073-1.689.073-4.948 0-3.259-.014-3.667-.072-4.947-.196-4.354-2.617-6.78-6.979-6.98-1.281-.059-1.69-.073-4.949-.073zm0 5.838c-3.403 0-6.162 2.759-6.162 6.162s2.759 6.163 6.162 6.163 6.162-2.759 6.162-6.163c0-3.403-2.759-6.162-6.162-6.162zm0 10.162c-2.209 0-4-1.79-4-4 0-2.209 1.791-4 4-4s4 1.791 4 4c0 2.21-1.791 4-4 4zm6.406-11.845c-.796 0-1.441.645-1.441 1.44s.645 1.44 1.441 1.44c.795 0 1.439-.645 1.439-1.44s-.644-1.44-1.439-1.44z"/>
  </symbol>

  <symbol id="icon-linkedin" viewBox="0 0 24 24">
    <path d="M20.447 20.452h-3.554v-5.569c0-1.328-.027-3.037-1.852-3.037-1.853 0-2.136 1.445-2.136 2.939v5.667H9.351V9h3.414v1.561h.046c.477-.9 1.637-1.85 3.37-1.85 3.601 0 4.267 2.37 4.267 5.455v6.286zM5.337 7.433c-1.144 0-2.063-.926-2.063-2.065 0-1.138.92-2.063 2.063-2.063 1.14 0 2.064.925 2.064 2.063 0 1.139-.925 2.065-2.064 2.065zm1.782 13.019H3.555V9h3.564v11.452zM22.225 0H1.771C.792 0 0 .774 0 1.729v20.542C0 23.227.792 24 1.771 24h20.451C23.2 24 24 23.227 24 22.271V1.729C24 .774 23.2 0 22.222 0h.003z"/>
  </symbol>

  <symbol id="icon-twitter" viewBox="0 0 24 24">
    <path d="M7.548 22.5c9.056 0 14.01-7.503 14.01-14.01 0-.213 0-.425-.015-.636A10.02 10.02 0 0024 5.305a9.828 9.828 0 01-2.828.776A4.94 4.94 0 0023.337 3.12a9.864 9.864 0 01-3.127 1.195A4.916 4.916 0 0016.616 2.5c-2.719 0-4.924 2.205-4.924 4.924 0 .386.043.762.128 1.124C7.728 8.087 4.1 5.245 1.671 1.149a4.93 4.93 0 00-.666 2.475c0 1.71.87 3.213 2.188 4.096a4.904 4.904 0 01-2.228-.616v.061a4.923 4.923 0 003.946 4.827 4.996 4.996 0 01-2.212.085 4.937 4.937 0 004.604 3.417 9.867 9.867 0 01-6.102 2.105c-.39 0-.779-.023-1.17-.067a13.995 13.995 0 007.557 2.212"/>
  </symbol>

  <!-- Contact & Communication Icons -->
  <symbol id="icon-email" viewBox="0 0 24 24">
    <path d="M1.5 8.67v8.58a3 3 0 003 3h15a3 3 0 003-3V8.67l-8.928 5.493a3 3 0 01-3.144 0L1.5 8.67z"/>
    <path d="M22.5 6.908V6.75a3 3 0 00-3-3h-15a3 3 0 00-3 3v.158l9.714 5.978a1.5 1.5 0 001.572 0L22.5 6.908z"/>
  </symbol>

  <symbol id="icon-phone" viewBox="0 0 24 24">
    <path d="M2.25 6.75c0 8.284 6.716 15 15 15h2.25a2.25 2.25 0 002.25-2.25v-1.372c0-.516-.351-.966-.852-1.091l-4.423-1.106c-.44-.11-.902.055-1.173.417l-.97 1.293c-.282.376-.769.542-1.21.38a12.035 12.035 0 01-7.143-7.143c-.162-.441.004-.928.38-1.21l1.293-.97c.363-.271.527-.734.417-1.173L6.963 3.102c-.125-.501-.575-.852-1.091-.852H4.5A2.25 2.25 0 002.25 4.5v2.25z"/>
  </symbol>

  <symbol id="icon-location" viewBox="0 0 24 24">
    <path d="M11.47 3.84a.75.75 0 011.06 0l8.69 8.69a.75.75 0 010 1.06l-8.69 8.69a.75.75 0 01-1.06 0l-8.69-8.69a.75.75 0 010-1.06l8.69-8.69z"/>
    <path d="M12 1.5A6.75 6.75 0 005.25 8.25c0 1.85.75 3.525 1.965 4.74L12 17.775l4.785-4.785A6.737 6.737 0 0018.75 8.25 6.75 6.75 0 0012 1.5zm0 9a2.25 2.25 0 100-4.5 2.25 2.25 0 000 4.5z"/>
  </symbol>

  <symbol id="icon-clock" viewBox="0 0 24 24">
    <path d="M12 2.25c-5.385 0-9.75 4.365-9.75 9.75s4.365 9.75 9.75 9.75 9.75-4.365 9.75-9.75S17.385 2.25 12 2.25zM12.75 6a.75.75 0 00-1.5 0v6c0 .414.336.75.75.75h4.5a.75.75 0 000-1.5h-3.75V6z"/>
  </symbol>

  <!-- Property Feature Icons -->
  <symbol id="icon-bed" viewBox="0 0 24 24">
    <path d="M3.75 12h16.5m-16.5 3.75h16.5M3.375 19.5h17.25c.621 0 1.125-.504 1.125-1.125v-1.5c0-.621-.504-1.125-1.125-1.125H3.375c-.621 0-1.125.504-1.125 1.125v1.5c0 .621.504 1.125 1.125 1.125z"/>
    <path d="M9.75 9a2.25 2.25 0 11-4.5 0 2.25 2.25 0 014.5 0zM18.75 9a2.25 2.25 0 11-4.5 0 2.25 2.25 0 014.5 0z"/>
  </symbol>

  <symbol id="icon-bath" viewBox="0 0 24 24">
    <path d="M9.75 3.104v5.714a2.25 2.25 0 01-.659 1.591L7 12.5H4.5a2.25 2.25 0 00-2.25 2.25v.75c0 2.123.8 4.057 2.118 5.52l.01.008A9.745 9.745 0 0012 22.5c2.554 0 4.91-.991 6.622-2.472l.01-.008A9.94 9.94 0 0020.75 15.5v-.75A2.25 2.25 0 0018.5 12.5H16l-2.091-2.091A2.25 2.25 0 0113.25 8.818V3.104a48.147 48.147 0 00-3.5 0z"/>
    <path d="M7.5 4.503v9.75m0-9.75a1.5 1.5 0 00-1.5 1.5v.75m1.5-2.25h3m-3 2.25l.75 9.75m.75-11.25h1.5m-1.5 0v.75"/>
  </symbol>

  <symbol id="icon-area" viewBox="0 0 24 24">
    <path d="M18.375 2.25c-1.035 0-1.875.84-1.875 1.875v15.75c0 1.035.84 1.875 1.875 1.875h.75c1.035 0 1.875-.84 1.875-1.875V4.125c0-1.036-.84-1.875-1.875-1.875h-.75zM9.75 8.625c0-1.036.84-1.875 1.875-1.875h.75c1.036 0 1.875.84 1.875 1.875v11.25c0 1.035-.84 1.875-1.875 1.875h-.75a1.875 1.875 0 01-1.875-1.875V8.625zM3 13.125c0-1.036.84-1.875 1.875-1.875h.75c1.036 0 1.875.84 1.875 1.875v6.75c0 1.035-.84 1.875-1.875 1.875h-.75A1.875 1.875 0 013 19.875v-6.75z"/>
  </symbol>

  <symbol id="icon-garage" viewBox="0 0 24 24">
    <path d="M8.25 21v-4.875c0-.621.504-1.125 1.125-1.125h2.25c.621 0 1.125.504 1.125 1.125V21m0 0h4.5V9.375c0-.621-.504-1.125-1.125-1.125H8.25c-.621 0-1.125.504-1.125 1.125V21m0 0H3.375c-.621 0-1.125-.504-1.125-1.125V9.375c0-.621.504-1.125 1.125-1.125h.75M21 12l-9-9-9 9"/>
    <path d="M9 12h6v6H9z"/>
  </symbol>

  <symbol id="icon-building" viewBox="0 0 24 24">
    <path d="M3.75 21h16.5M4.5 3h15l-.75 18h-13.5L4.5 3zM9 9h1.5m-1.5 3h1.5m-1.5 3h1.5m3-6H15m-1.5 3H15m-1.5 3H15M9 21v-3.375c0-.621.504-1.125 1.125-1.125h3.75c.621 0 1.125.504 1.125 1.125V21"/>
  </symbol>

  <symbol id="icon-beach" viewBox="0 0 24 24">
    <path d="M20.25 7.5l-.625 10.632a2.25 2.25 0 01-2.247 2.118H6.622a2.25 2.25 0 01-2.247-2.118L3.75 7.5M8.25 21.75h7.5m-7.5 0V9.375a1.125 1.125 0 011.125-1.125h5.25c.621 0 1.125.504 1.125 1.125v12.375m-7.5 0H6.75a.75.75 0 01-.75-.75V9a.75.75 0 01.75-.75h.75M15.75 21.75H17.25a.75.75 0 00.75-.75V9a.75.75 0 00-.75-.75h-.75"/>
    <path d="M12 2.25c-5.385 0-9.75 4.365-9.75 9.75h19.5c0-5.385-4.365-9.75-9.75-9.75z"/>
  </symbol>

  <symbol id="icon-pool" viewBox="0 0 24 24">
    <circle cx="12" cy="8" r="6"/>
    <path d="M15.477 12.89 17 22l-5-3-5 3 1.523-9.11"/>
    <path d="M2.5 17.5c.83.83 2.17.83 3 0 .83-.83 2.17-.83 3 0 .83.83 2.17.83 3 0 .83-.83 2.17-.83 3 0 .83.83 2.17.83 3 0 .83-.83 2.17-.83 3 0"/>
    <path d="M2.5 20.5c.83.83 2.17.83 3 0 .83-.83 2.17-.83 3 0 .83.83 2.17.83 3 0 .83-.83 2.17-.83 3 0 .83.83 2.17.83 3 0 .83-.83 2.17-.83 3 0"/>
  </symbol>

  <symbol id="icon-ski" viewBox="0 0 24 24">
    <path d="M7 6a4 4 0 1 0 0-8 4 4 0 0 0 0 8zM9.5 8.5l-.5.5h2l2 2 .5 1 .5.5-1 1-1 .5h-1l-.5-.5-.5-.5-.5-1.5-1.5-1.5zm6.5 6.5l-2 2h-3l-2-2v-2l2-2h3l2 2v2z"/>
    <path d="M21.5 18.5l-2-6.5L18 10l-2.5 1.5-1 .5-.5 1.5 1.5 2.5 1.5 1.5 2 1 1.5-1 .5-1.5z"/>
  </symbol>

  <symbol id="icon-theater" viewBox="0 0 24 24">
    <path d="M15.75 10.5V6a3.75 3.75 0 10-7.5 0v4.5m11.356-1.993l1.263 12c.07.665-.45 1.243-1.119 1.243H4.25a1.125 1.125 0 01-1.12-1.243l1.264-12A1.125 1.125 0 015.513 7.5h12.974c.576 0 1.059.435 1.119 1.007zM8.625 10.5a.375.375 0 11-.75 0 .375.375 0 01.75 0zm7.5 0a.375.375 0 11-.75 0 .375.375 0 01.75 0z"/>
    <path d="M12 12.75a.75.75 0 100-1.5.75.75 0 000 1.5z"/>
  </symbol>

  <!-- Business/Service Icons -->
  <symbol id="icon-trophy" viewBox="0 0 24 24">
    <path d="M12 2L15.09 8.26L22 9L17 14L18.18 21L12 17.77L5.82 21L7 14L2 9L8.91 8.26L12 2Z" fill="currentColor"/>
    <path d="M7 14L12 17.77L17 14M12 2L15.09 8.26L22 9L17 14M12 2L8.91 8.26L2 9L7 14" fill="none" stroke="currentColor" stroke-width="1"/>
  </symbol>

  <symbol id="icon-chart" viewBox="0 0 24 24">
    <path d="M3 3V21H21" fill="none" stroke="currentColor" stroke-width="2"/>
    <path d="M7 12L12 7L16 11L20 6" fill="none" stroke="currentColor" stroke-width="2"/>
    <circle cx="7" cy="12" r="1.5" fill="currentColor"/>
    <circle cx="12" cy="7" r="1.5" fill="currentColor"/>
    <circle cx="16" cy="11" r="1.5" fill="currentColor"/>
    <circle cx="20" cy="6" r="1.5" fill="currentColor"/>
  </symbol>

  <symbol id="icon-analytics" viewBox="0 0 24 24">
    <rect x="3" y="12" width="4" height="9" rx="1" fill="currentColor"/>
    <rect x="10" y="8" width="4" height="13" rx="1" fill="currentColor"/>
    <rect x="17" y="4" width="4" height="17" rx="1" fill="currentColor"/>
  </symbol>

  <symbol id="icon-target" viewBox="0 0 24 24">
    <circle cx="12" cy="12" r="10" fill="none" stroke="currentColor" stroke-width="2"/>
    <circle cx="12" cy="12" r="6" fill="none" stroke="currentColor" stroke-width="2"/>
    <circle cx="12" cy="12" r="2" fill="currentColor"/>
  </symbol>

  <symbol id="icon-globe" viewBox="0 0 24 24">
    <circle cx="12" cy="12" r="10" fill="none" stroke="currentColor" stroke-width="1.5"/>
    <path d="M2 12h20M12 2a15.3 15.3 0 0 1 4 10 15.3 15.3 0 0 1-4 10 15.3 15.3 0 0 1-4-10 15.3 15.3 0 0 1 4-10z" fill="none" stroke="currentColor" stroke-width="1.5"/>
  </symbol>

  <symbol id="icon-crown" viewBox="0 0 24 24">
    <path d="M5 16L3 6L8 10L12 4L16 10L21 6L19 16H5Z" fill="currentColor" stroke="currentColor" stroke-width="1"/>
    <circle cx="5" cy="6" r="1" fill="currentColor"/>
    <circle cx="12" cy="4" r="1" fill="currentColor"/>
    <circle cx="19" cy="6" r="1" fill="currentColor"/>
    <path d="M5 16H19L20 20H4L5 16Z" fill="currentColor"/>
  </symbol>

  <!-- UI/Decorative Icons -->
  <symbol id="icon-star" viewBox="0 0 24 24">
    <path d="M11.48 3.499a.562.562 0 011.04 0l2.125 5.111a.563.563 0 00.475.345l5.518.442c.499.04.701.663.321.988l-4.204 3.602a.563.563 0 00-.182.557l1.285 5.385a.562.562 0 01-.84.61l-4.725-2.885a.563.563 0 00-.586 0L6.982 20.54a.562.562 0 01-.84-.61l1.285-5.386a.562.562 0 00-.182-.557l-4.204-3.602a.563.563 0 01.321-.988l5.518-.442a.563.563 0 00.475-.345L11.48 3.5z"/>
  </symbol>

  <symbol id="icon-diamond" viewBox="0 0 24 24">
    <path d="M6 3H18L22 9L12 21L2 9L6 3Z" fill="currentColor" stroke="currentColor" stroke-width="1"/>
    <path d="M6 3L10 9L12 21" fill="none" stroke="currentColor" stroke-width="1"/>
    <path d="M18 3L14 9L12 21" fill="none" stroke="currentColor" stroke-width="1"/>
    <path d="M2 9H22" fill="none" stroke="currentColor" stroke-width="1"/>
  </symbol>

  <symbol id="icon-sparkle" viewBox="0 0 24 24">
    <path d="M12 1L14 7L20 9L14 11L12 17L10 11L4 9L10 7L12 1Z" fill="currentColor"/>
    <path d="M19 4L20 6L22 7L20 8L19 10L18 8L16 7L18 6L19 4Z" fill="currentColor"/>
    <path d="M6 16L7 18L9 19L7 20L6 22L5 20L3 19L5 18L6 16Z" fill="currentColor"/>
  </symbol>

  <!-- Map/Location Icons -->
  <symbol id="icon-map" viewBox="0 0 24 24">
    <path d="M9 6.75V15m6-6v8.25m.503 3.498l4.875-2.437c.381-.19.622-.58.622-1.006V4.82c0-.836-.88-1.38-1.628-1.006l-3.869 1.934c-.317.159-.69.159-1.006 0L9.503 3.252a1.125 1.125 0 00-1.006 0L3.622 5.689C3.24 5.88 3 6.27 3 6.695V19.18c0 .836.88 1.38 1.628 1.006l3.869-1.934c.317-.159.69-.159 1.006 0l4.994 2.497c.317.158.69.158 1.006 0z"/>
  </symbol>

  <symbol id="icon-parking" viewBox="0 0 24 24">
    <path d="M8.25 4.5a3.75 3.75 0 00-3.75 3.75v8.25a3.75 3.75 0 007.5 0V12.75h1.5a2.25 2.25 0 000-4.5H8.25zM6 8.25a.75.75 0 01.75-.75h1.5a.75.75 0 010 1.5H6.75a.75.75 0 01-.75-.75zM6 12a.75.75 0 01.75-.75H9a.75.75 0 010 1.5H6.75A.75.75 0 016 12z"/>
    <path d="M12 2.25c-5.385 0-9.75 4.365-9.75 9.75s4.365 9.75 9.75 9.75 9.75-4.365 9.75-9.75S17.385 2.25 12 2.25zM12 8.25a.75.75 0 01.75.75v3a.75.75 0 01-1.5 0V9a.75.75 0 01.75-.75z"/>
  </symbol>

  <symbol id="icon-metro" viewBox="0 0 24 24">
    <path d="M8.25 18.75a1.5 1.5 0 01-3 0V6a3 3 0 013-3h6a3 3 0 013 3v12.75a1.5 1.5 0 01-3 0V6a1.5 1.5 0 00-1.5-1.5h-6A1.5 1.5 0 008.25 6v12.75z"/>
    <path d="M12 7.875a1.125 1.125 0 100 2.25 1.125 1.125 0 000-2.25z"/>
  </symbol>

  <symbol id="icon-amenities" viewBox="0 0 24 24">
    <path d="M18.685 19.097A9.723 9.723 0 0021.75 12c0-5.385-4.365-9.75-9.75-9.75S2.25 6.615 2.25 12a9.723 9.723 0 003.065 7.097A9.716 9.716 0 0012 21.75a9.716 9.716 0 006.685-2.653zm-12.54-1.285A7.486 7.486 0 004.5 12a7.5 7.5 0 019.75-7.07c.55.085 1.084.211 1.595.374A7.473 7.473 0 0112 4.5c-1.055 0-2.063.218-2.976.612A7.472 7.472 0 006.145 17.812z"/>
    <circle cx="12" cy="12" r="2"/>
  </symbol>

  <!-- View/Layout Icons -->
  <symbol id="icon-grid" viewBox="0 0 24 24">
    <rect x="3" y="3" width="7" height="7" rx="1" fill="currentColor"/>
    <rect x="14" y="3" width="7" height="7" rx="1" fill="currentColor"/>
    <rect x="3" y="14" width="7" height="7" rx="1" fill="currentColor"/>
    <rect x="14" y="14" width="7" height="7" rx="1" fill="currentColor"/>
  </symbol>

  <symbol id="icon-list" viewBox="0 0 24 24">
    <path d="M3 6h18M3 12h18M3 18h18" stroke="currentColor" stroke-width="2" stroke-linecap="round"/>
  </symbol>

  <symbol id="icon-check" viewBox="0 0 24 24">
    <path d="M9 12.75L11.25 15 15 9.75M21 12a9 9 0 11-18 0 9 9 0 0118 0z" stroke="currentColor" stroke-width="2" stroke-linecap="round" stroke-linejoin="round" fill="none"/>
  </symbol>

</svg>